PathFileType	4	(X/Y/Z)	C:/Users/opensim2020/Desktop/walking_exp_matlab/subject02_walking12_straight_03.trc																																																																																																																												
DataRate	CameraRate	NumFrames	NumMarkers	Units	OrigDataRate	OrigDataStartFrame	OrigNumFrames																																																																																																																								
100	100	8	42	mm	100	1526	127																																																																																																																								
Frame#	Time	LFHD			RFHD			LBHD			RBHD			C7			T10			CLAV			STRN			RBAK			LSHO			LUPA			LELB			LFRM			LWRA			LWRB			LFIN			RSHO			RUPA			RELB			RFRM			RWRA			RWRB			RFIN			LASI			RASI			LPSI			RPSI			LTHI			LKNE			LTIB			LANK			LHEE			LTOE			RTHI			RKNE			RTIB			RANK			RHEE			RTOE			*39			*40			*41		
		X1	Y1	Z1	X2	Y2	Z2	X3	Y3	Z3	X4	Y4	Z4	X5	Y5	Z5	X6	Y6	Z6	X7	Y7	Z7	X8	Y8	Z8	X9	Y9	Z9	X10	Y10	Z10	X11	Y11	Z11	X12	Y12	Z12	X13	Y13	Z13	X14	Y14	Z14	X15	Y15	Z15	X16	Y16	Z16	X17	Y17	Z17	X18	Y18	Z18	X19	Y19	Z19	X20	Y20	Z20	X21	Y21	Z21	X22	Y22	Z22	X23	Y23	Z23	X24	Y24	Z24	X25	Y25	Z25	X26	Y26	Z26	X27	Y27	Z27	X28	Y28	Z28	X29	Y29	Z29	X30	Y30	Z30	X31	Y31	Z31	X32	Y32	Z32	X33	Y33	Z33	X34	Y34	Z34	X35	Y35	Z35	X36	Y36	Z36	X37	Y37	Z37	X38	Y38	Z38	X39	Y39	Z39	X40	Y40	Z40	X41	Y41	Z41	X42	Y42	Z42
																																																																																																																															
1	0	-556.47705	1721.66199	-1041.76685	-579.53772	1703.005	-900.73694	-675.08167	1633.05518	-1071.5033	-709.85162	1611.72302	-934.02002	-731.50812	1498.35706	-996.35046	-791.80011	1226.34009	-992.99127	-589.50073	1428.62292	-1000.09155	-544.57123	1255.5354	-977.97626	-796.61481	1330.74292	-928.66443	-657.24915	1464.95215	-1171.78247	-737.17346	1280.00232	-1239.97693	-788.73938	1147.19788	-1237.33887	-831.92224	1020.83618	-1241.07861	-835.9798	886.09021	-1191.50732	-871.46307	902.60101	-1232.90063	-892.57733	838.03595	-1217.63733	-658.6676	1472.18335	-807.84277	-645.55261	1287.31702	-711.59027	-576.70612	1152.60266	-686.74744	-481.77335	1075.00464	-702.23657	-377.90256	1009.91187	-760.48041	-398.88971	975.60303	-718.5885	-331.90283	957.00555	-738.20776	-542.64337	961.94043	-1088.4397	-602.93274	939.10669	-838.63287	-766.73096	1007.2569	-1055.46106	-794.71545	1005.28912	-944.75244	-534.3985	672.65784	-1190.79443	-495.24564	476.43512	-1172.35547	-478.38971	285.15448	-1192.78748	-386.01736	77.20779	-1184.85901	-408.0712	35.76515	-1135.54407	-229.41336	93.14063	-1192.52625	-751.3797	647.12494	-807.71582	-801.71967	444.51025	-857.15198	-902.64606	284.15979	-862.35577	-979.495	106.38857	-907.92584	-1023.62909	60.03643	-967.1015	-842.51337	31.55295	-884.62335	-678.56409	1775.29553	-971.59015	2845.95044	1034.39148	-3357.31665	NaN	NaN	NaN
2	0.01	-544.46967	1720.38757	-1044.14368	-567.98853	1701.67371	-903.28418	-663.07941	1632.17273	-1073.64136	-698.31201	1610.81348	-936.8255	-720.09314	1497.1001	-999.17474	-779.12811	1224.60742	-996.0213	-577.63483	1427.82642	-1002.68921	-531.8512	1255.0415	-980.5719	-784.47321	1329.08374	-931.82025	-645.05115	1463.83093	-1174.50232	-724.44806	1278.45288	-1242.34021	-775.77179	1145.93408	-1240.2926	-820.29138	1020.63458	-1244.96667	-828.12665	885.63879	-1194.25562	-861.3042	902.55774	-1237.52637	-884.88324	838.67218	-1221.77966	-647.65601	1471.08728	-810.56598	-634.453	1286.33276	-714.41113	-566.46265	1151.42957	-689.14966	-470.58783	1074.57922	-704.32623	-366.50128	1010.49738	-762.11792	-387.43628	975.7561	-720.70319	-319.94626	958.1178	-739.60632	-528.12683	961.65588	-1091.36731	-589.3877	937.60071	-841.44385	-752.76031	1005.89447	-1059.00037	-780.79669	1003.6098	-948.44983	-517.52228	672.7677	-1193.23401	-480.94156	475.16534	-1173.96545	-468.34225	283.17844	-1193.5946	-380.81921	73.35838	-1184.34509	-404.10394	33.08342	-1135.22168	-224.20146	86.22305	-1191.41345	-739.84869	646.797	-809.49304	-791.69226	444.58896	-857.3833	-896.15582	286.47427	-862.39551	-977.28925	110.51975	-906.94507	-1022.328	65.50852	-965.87067	-842.13416	31.50261	-884.19366	-666.69958	1774.11292	-974.08807	2846.77124	1034.24426	-3355.36328	NaN	NaN	NaN
3	0.02	-532.47766	1719.26318	-1046.46179	-556.82501	1700.18579	-906.0329	-651.56036	1631.53296	-1076.87573	-686.76544	1610.07483	-939.58594	-708.46399	1495.76013	-1002.20966	-766.26837	1222.89282	-999.11438	-565.75983	1427.16711	-1005.38959	-519.09985	1254.60742	-983.27283	-771.57507	1327.17053	-934.95813	-632.78961	1463.06189	-1177.26221	-711.2879	1277.34619	-1245.81812	-762.40533	1144.87268	-1243.52759	-807.79724	1020.06543	-1248.87549	-818.42114	885.6095	-1197.65881	-850.03125	902.39795	-1242.58618	-876.00928	839.06061	-1226.29163	-636.67053	1470.03137	-813.45416	-624.40143	1285.19824	-717.3363	-556.49194	1150.36133	-691.6264	-460.38675	1073.89246	-706.18982	-355.31448	1011.19702	-763.84326	-376.49484	975.66089	-722.70923	-308.75836	958.77441	-740.94287	-513.37109	961.74927	-1094.68774	-575.13007	936.51398	-844.44733	-738.4696	1004.52039	-1062.63965	-766.43274	1001.8847	-952.32025	-501.03439	672.6485	-1195.79248	-467.33966	473.68427	-1175.70984	-459.08112	280.99899	-1194.27502	-376.6051	70.10551	-1184.03528	-401.63184	31.49426	-1135.20264	-219.73149	78.40739	-1189.99023	-727.8822	646.92249	-811.32605	-781.11932	444.91589	-857.54321	-889.21771	289.16956	-862.36859	-974.73474	115.30808	-905.61823	-1020.73407	71.69225	-964.82343	-841.90143	31.64848	-883.60162	-654.66364	1773.30554	-976.65808	NaN	NaN	NaN	NaN	NaN	NaN
4	0.03	-520.39661	1718.19861	-1048.89673	-545.02722	1699.29248	-908.10864	-639.78638	1630.88562	-1079.64844	-675.40674	1609.39465	-942.47101	-696.88745	1494.46997	-1005.27942	-753.15143	1221.10864	-1002.33282	-553.80511	1426.57483	-1008.11432	-506.03757	1254.38574	-986.19	-759.48883	1325.47424	-938.2359	-620.49139	1462.45398	-1180.12903	-698.06427	1276.66638	-1249.70679	-748.7608	1144.00281	-1247.04309	-794.54596	1019.48944	-1253.13611	-807.99597	885.14557	-1201.42603	-837.68408	902.09137	-1247.85986	-865.67346	839.4718	-1230.73938	-625.30408	1468.90344	-816.40924	-613.86127	1284.33215	-720.26764	-546.5531	1149.12354	-694.21375	-450.56256	1073.05859	-708.22314	-344.75342	1010.74237	-764.98206	-366.23691	975.17603	-724.56641	-298.74826	958.50787	-742.29266	-498.60031	962.11749	-1098.23633	-560.35272	935.72369	-847.82483	-723.97729	1003.17108	-1066.47119	-752.07166	1000.30426	-956.40021	-485.05484	672.35779	-1198.31482	-454.74844	472.29706	-1178.08765	-450.16147	278.75168	-1194.11194	-371.84763	68.22209	-1183.54333	-398.71164	33.59679	-1134.82385	-212.9845	66.47021	-1189.92407	-715.50677	647.06232	-813.2262	-769.90967	445.46735	-857.68402	-881.86334	292.35565	-862.31915	-971.71613	120.65456	-904.42529	-1018.41565	78.38185	-963.35443	-841.28857	31.63181	-882.98328	-642.7113	1772.83655	-979.29767	NaN	NaN	NaN	NaN	NaN	NaN
5	0.04	-508.24994	1717.57263	-1051.14209	-533.229	1698.52185	-910.57629	-627.883	1630.71655	-1082.62805	-663.8089	1608.89294	-945.29626	-685.44373	1493.33704	-1008.46545	-739.96082	1220.10864	-1005.91968	-541.69733	1426.28796	-1011.02325	-493.11453	1254.48022	-989.10156	-747.09186	1323.95923	-941.91833	-608.22607	1461.95923	-1183.04016	-684.49542	1275.46375	-1253.10339	-734.69556	1142.86902	-1250.61169	-780.74475	1018.88092	-1257.76343	-796.61591	884.6377	-1205.63269	-824.38422	901.60535	-1253.3479	-854.16785	839.45648	-1236.10608	-614.49445	1468.22327	-819.31177	-602.96606	1283.44153	-723.21741	-537.16003	1148.12976	-696.72266	-440.9725	1072.12207	-710.66302	-334.85187	1009.84369	-765.98297	-356.53354	974.33698	-726.23157	-288.39731	958.12231	-743.07843	-484.1647	962.77319	-1102.00183	-544.95117	935.27496	-851.33075	-709.33142	1002.26251	-1070.28174	-737.65393	998.69885	-960.6955	-470.22733	672.75726	-1200.88696	-443.43781	472.13077	-1181.35803	-439.99323	277.6319	-1192.72583	-365.11993	69.31563	-1185.87708	-394.13202	35.8985	-1136.72803	-206.16992	56.35625	-1189.78394	-702.2403	647.31854	-815.32513	-757.87799	446.17819	-857.88751	-873.81805	295.99384	-862.25464	-967.86389	126.49493	-903.04663	-1015.37878	86.0514	-962.14441	-840.86401	31.68613	-882.48761	-630.43976	1772.46008	-981.76624	2846.10083	1034.12024	-3356.92114	NaN	NaN	NaN
6	0.05	-496.18301	1717.7561	-1053.29675	-521.61597	1698.44104	-912.80316	-615.75934	1631.07935	-1085.18762	-652.11005	1609.37012	-948.46838	-674.11066	1492.72876	-1011.69543	-726.73926	1219.50537	-1009.23743	-529.65857	1426.45654	-1013.89276	-480.35461	1255.00525	-992.11407	-735.54688	1323.22534	-945.75824	-595.99115	1461.80798	-1186.04651	-670.74585	1274.61133	-1256.72546	-720.3194	1141.96179	-1254.46851	-766.30261	1018.22369	-1262.40271	-784.12286	883.99469	-1210.22888	-810.08655	901.0304	-1259.13623	-841.38196	839.32916	-1241.96729	-603.95953	1467.61133	-822.38721	-593.52863	1282.51025	-726.47668	-528.1344	1147.04272	-699.43396	-431.98111	1070.83887	-712.39276	-325.44745	1008.78564	-767.29919	-347.41476	973.08923	-727.79102	-279.08792	957.047	-743.9068	-469.84143	963.89124	-1106.0448	-529.19037	935.03107	-855.06348	-694.44171	1002.1759	-1074.09583	-723.37866	997.20148	-965.0332	-456.42731	673.95953	-1203.68542	-431.22391	473.41299	-1184.9978	-428.63513	279.42786	-1193.00354	-358.93088	68.18334	-1188.77014	-391.13611	37.42961	-1139.97559	-200.50769	49.85326	-1189.08557	-688.1073	647.85339	-817.39948	-744.78912	447.11795	-857.81232	-864.75037	300.05792	-862.10297	-963.25031	133.11699	-901.68524	-1011.70306	94.87355	-960.82001	-840.23645	31.67791	-881.97107	-618.52313	1772.72607	-984.2608	NaN	NaN	NaN	NaN	NaN	NaN
7	0.06	-484.06372	1718.25574	-1055.41333	-510.0433	1698.51135	-915.0918	-603.78162	1631.96741	-1087.95874	-640.68463	1609.95581	-951.33032	-662.32959	1492.70898	-1015.01068	-713.58698	1219.09607	-1012.08136	-517.76886	1427.00098	-1016.74341	-467.49426	1255.84387	-995.23004	-722.58954	1322.36646	-949.36676	-583.66644	1462.1123	-1189.18335	-656.90033	1273.95129	-1260.7655	-705.44897	1141.12354	-1258.4585	-751.21826	1017.73737	-1267.36597	-770.39313	883.40002	-1215.42041	-794.86041	900.46124	-1265.07837	-827.24524	839.00079	-1248.34949	-593.12885	1467.53259	-824.92865	-584.01324	1281.71179	-729.22595	-519.46771	1145.83289	-702.1803	-423.39151	1069.479	-714.82434	-316.26151	1007.23212	-768.29919	-338.91858	971.4671	-729.17957	-270.48026	955.36859	-744.52606	-455.64786	965.47369	-1110.45081	-513.29388	935.1618	-858.89716	-679.98578	1003.12006	-1077.58899	-709.1131	996.11627	-968.95154	-443.05252	675.76849	-1207.37158	-416.47644	476.10559	-1188.18665	-416.77975	282.45761	-1200.13135	-355.0192	67.83394	-1190.72729	-389.31958	38.6364	-1142.13843	-197.38319	44.11781	-1188.91064	-673.40387	648.52466	-819.86292	-730.63916	448.23383	-857.25952	-854.34283	304.4903	-861.79565	-957.51068	140.3909	-900.43225	-1006.09198	103.99236	-960.17725	-839.65021	31.81973	-881.79077	-606.51538	1773.14148	-986.43451	NaN	NaN	NaN	NaN	NaN	NaN
8	0.07	-471.93411	1718.97791	-1057.45203	-498.45966	1698.95325	-917.36499	-591.70264	1633.05835	-1090.63354	-629.02704	1610.85254	-954.38568	-650.36279	1493.26599	-1018.0625	-700.4906	1219.06213	-1014.78241	-505.96124	1427.81506	-1019.61823	-454.68933	1257.10522	-998.43628	-710.79846	1322.08435	-952.91382	-571.49646	1462.66467	-1192.22217	-642.56702	1273.46509	-1264.03064	-690.16052	1140.44958	-1262.50513	-735.68341	1017.36908	-1272.55383	-755.15643	883.10596	-1221.2146	-778.68774	899.95978	-1271.33704	-811.74066	838.56989	-1255.28748	-582.37024	1467.78979	-827.55078	-573.32025	1280.8717	-732.73602	-510.73843	1144.80457	-705.39252	-414.9642	1067.88245	-716.72858	-307.70734	1005.16174	-769.12494	-331.09845	969.4928	-730.48627	-263.02759	953.1001	-744.99286	-441.58752	967.28333	-1115.09375	-497.22025	935.53058	-863.07422	-665.91461	1004.97937	-1080.68848	-694.39124	995.79333	-972.34821	-430.24728	677.96277	-1211.23083	-399.96451	479.21378	-1190.30652	-403.99515	285.67014	-1206.85913	-353.13742	68.58533	-1190.84302	-388.19656	38.80829	-1142.59937	-195.95326	41.18107	-1190.58032	-658.07269	649.28088	-822.35773	-714.15784	448.93103	-856.64227	-842.44537	308.97101	-861.48059	-950.31305	148.29482	-899.51392	-999.34003	114.29763	-960.00208	-838.62921	31.93777	-881.51984	-594.64948	1773.9397	-988.99652	NaN	NaN	NaN	NaN	NaN	NaN
